<svg xmlns="http://www.w3.org/2000/svg" xmlns:svg="http://www.w3.org/2000/svg" id="svg2" width="1013.388" height="729.925" version="1.1" xml:space="preserve"><metadata id="metadata8"/><defs id="defs6"><clipPath id="clipPath20" clipPathUnits="userSpaceOnUse"><path id="path22" d="m 0,583.94 810.71,0 L 810.71,0 0,0 0,583.94 z"/></clipPath></defs><g id="g10" transform="matrix(1.25,0,0,-1.25,0,729.925)" style="display:inline"><g id="g3180" transform="matrix(5.4871508,0,0,5.4871508,-1821.3787,-1356.8548)" style="fill:#008bba;fill-opacity:1"><g style="fill:#008bba;fill-opacity:1" id="g52" transform="translate(450.0909,308.6783)"><path id="path54" d="m 483.78125,295.78125 c -18.20125,0 -33,14.83125 -33,33.03125 l 0,45.8125 c 0,18.20875 14.79875,33 33,33 l 7.75,0 0,-20.1875 -7.75,0 c -7.0575,0 -12.8125,-5.7475 -12.8125,-12.8125 l 0,-45.8125 c 0,-7.06375 5.755,-12.8125 12.8125,-12.8125 7.06375,0 12.8125,5.74875 12.8125,12.8125 l 0,15.25 20.1875,0 0,-15.25 c 0,-7.06375 5.74875,-12.8125 12.8125,-12.8125 7.05625,0 12.8125,5.74875 12.8125,12.8125 l 0,15.25 -46.0625,43.42109 14.96875,20.17266 51.3125,-63.59375 0,-15.25 c -0.0106,-18.19999 -14.83125,-33.03125 -33.03125,-33.03125 -8.8875,0 -16.9625,3.55125 -22.90625,9.28125 -5.9425,-5.73 -14.02,-9.28125 -22.90625,-9.28125 z" transform="matrix(0.8,0,0,-0.8,-450.0909,275.2617)" style="fill:#008bba;fill-opacity:1;fill-rule:nonzero;stroke:none"/></g><path style="fill:#008bba;fill-opacity:1;stroke:none" id="rect3049" d="m 413.275,309.19 -15.5386,-0.12803 -0.2864,-0.37197 -21.575,0 0,-19.95 37.375,0 0,0.35 25,-30.975 11.9,16.25 z m -21.85,-35.2 0,-16.15 17.65,0 0,16.15 z"/></g></g></svg>